HIERARCHY
ROOT Hips
{
	OFFSET	0.00	0.00	0.00
	CHANNELS 6 Xposition Yposition Zposition Zrotation Xrotation Yrotation
	JOINT LeftUpLeg
	{
		OFFSET	 0.126116	-0.014019	-0.065224
		CHANNELS 3 Zrotation Xrotation Yrotation
		JOINT LeftLeg
		{
			OFFSET	 0.000000	 0.000000	 0.569914
			CHANNELS 3 Zrotation Xrotation Yrotation
			JOINT LeftFoot
			{
				OFFSET	 0.000000	 0.000000	 0.544423
				CHANNELS 3 Zrotation Xrotation Yrotation
				JOINT LeftToeBase
				{
					OFFSET	 0.000000	 0.000000	 0.207117
					CHANNELS 3 Zrotation Xrotation Yrotation
					End Site
					{
						OFFSET	 0.000000	 0.000000	 0.207117
					}
				}
			}
		}
	}
	JOINT RightUpLeg
	{
		OFFSET	-0.124023	-0.008373	-0.065224
		CHANNELS 3 Zrotation Xrotation Yrotation
		JOINT RightLeg
		{
			OFFSET	 0.000000	 0.000000	 0.570047
			CHANNELS 3 Zrotation Xrotation Yrotation
			JOINT RightFoot
			{
				OFFSET	 0.000000	 0.000000	 0.544354
				CHANNELS 3 Zrotation Xrotation Yrotation
				JOINT RightToeBase
				{
					OFFSET	 0.000000	 0.000000	 0.207540
					CHANNELS 3 Zrotation Xrotation Yrotation
					End Site
					{
						OFFSET	 0.000000	 0.000000	 0.207540
					}
				}
			}
		}
	}
	JOINT Spine
	{
		OFFSET	 0.000184	-0.007763	 0.117403
		CHANNELS 3 Zrotation Xrotation Yrotation
		JOINT Spine1
		{
			OFFSET	 0.000000	 0.000000	 0.137269
			CHANNELS 3 Zrotation Xrotation Yrotation
			JOINT Spine2
			{
				OFFSET	 0.000000	 0.000000	 0.156879
				CHANNELS 3 Zrotation Xrotation Yrotation
				JOINT LeftShoulder
				{
					OFFSET	 0.080501	-0.002496	 0.160144
					CHANNELS 3 Zrotation Xrotation Yrotation
					JOINT LeftArm
					{
						OFFSET	 0.000000	 0.000000	 0.164363
						CHANNELS 3 Zrotation Xrotation Yrotation
						JOINT LeftForeArm
						{
							OFFSET	 0.000000	 0.000000	 0.364576
							CHANNELS 3 Zrotation Xrotation Yrotation
							JOINT LeftHand
							{
								OFFSET	 0.000000	 0.000000	 0.360812
								CHANNELS 3 Zrotation Xrotation Yrotation
								JOINT LeftHandIndex1
								{
									OFFSET	 0.000000	 0.000000	 0.086006
									CHANNELS 3 Zrotation Xrotation Yrotation
									JOINT LeftHandIndex2
									{
										OFFSET	 0.000000	 0.000000	 0.047237
										CHANNELS 3 Zrotation Xrotation Yrotation
										JOINT LeftHandIndex3
										{
											OFFSET	-0.004284	-0.000551	 0.038165
											CHANNELS 3 Zrotation Xrotation Yrotation
											End Site
											{
												OFFSET	-0.004284	-0.000551	 0.038165
											}
										}
									}
								}
							}
						}
					}
				}
				JOINT Neck
				{
					OFFSET	 0.000000	 0.000000	 0.176489
					CHANNELS 3 Zrotation Xrotation Yrotation
					JOINT Head
					{
						OFFSET	 0.000000	-0.001747	 0.077940
						CHANNELS 3 Zrotation Xrotation Yrotation
						End Site
						{
							OFFSET	 0.000000	-0.001747	 0.077940
						}
					}
				}
				JOINT RightShoulder
				{
					OFFSET	-0.080363	 0.000306	 0.159706
					CHANNELS 3 Zrotation Xrotation Yrotation
					JOINT RightArm
					{
						OFFSET	 0.000000	 0.000000	 0.164196
						CHANNELS 3 Zrotation Xrotation Yrotation
						JOINT RightForeArm
						{
							OFFSET	 0.000000	 0.000000	 0.365611
							CHANNELS 3 Zrotation Xrotation Yrotation
							JOINT RightHand
							{
								OFFSET	 0.000000	 0.000000	 0.360648
								CHANNELS 3 Zrotation Xrotation Yrotation
								JOINT RightHandIndex1
								{
									OFFSET	 0.000000	 0.000000	 0.069977
									CHANNELS 3 Zrotation Xrotation Yrotation
									JOINT RightHandIndex2
									{
										OFFSET	 0.000000	 0.000000	 0.052305
										CHANNELS 3 Zrotation Xrotation Yrotation
										JOINT RightHandIndex3
										{
											OFFSET	 0.009002	-0.000782	 0.042196
											CHANNELS 3 Zrotation Xrotation Yrotation
											End Site
											{
												OFFSET	 0.009002	-0.000782	 0.042196
											}
										}
									}
								}
							}
						}
					}
				}
			}
		}
	}
}
MOTION
Frames:    4
Frame Time: 0.03333334
-0.408402	 0.196042	 1.257150	-174.575300	 6.836727	 14.066580	 8.476011	-3.544053	 179.385700	-7.885912	-37.602190	-5.177872	 102.363600	 63.256350	-119.286300	-2.385833	 28.452760	 0.000004	 9.205433	-45.697910	 161.122000	 5.339512	-48.081690	 2.841994	-0.837456	 66.646490	 19.652570	 2.384659	 28.388700	-0.000001	 39.374630	-15.623070	 1.681766	 42.210000	 19.322460	 19.169530	-6.426823	-4.955096	-14.668280	-91.776150	 78.527380	 180.000000	-6.023161	 40.807700	 6.312481	-3.036639	-2.866769	-110.133700	 4.309883	-14.139410	-0.730135	-4.130319	 21.525730	 0.991547	-5.167930	 0.731704	 3.519349	-1.378229	 35.397820	-2.634230	-18.414170	 7.090420	 7.658886	-22.997330	-22.345220	-15.336580	 89.782030	 78.328840	-179.998300	 63.781140	-0.515770	-8.925644	-15.477600	-9.648527	 45.274910	-22.039490	 5.654127	-77.227900	 5.716227	 19.173190	-3.685159	 5.027444	 0.246877	-9.377972	-2.350882	 35.473990	 5.254307
-0.410956	 0.200938	 1.258124	-174.177000	 6.735679	 13.645200	 8.981594	-2.524180	 179.662300	-7.809149	-36.486130	-5.000377	 102.100900	 63.256450	-118.884500	-2.385833	 28.452760	 0.000004	 9.473143	-44.975950	 161.681100	 5.595384	-48.066650	 3.032072	-1.370485	 67.111240	 19.791920	 2.384659	 28.388700	-0.000001	 38.207820	-14.785680	 1.686255	 41.281640	 18.418840	 19.852670	-6.130737	-4.668858	-14.436020	-91.776190	 78.527350	-180.000000	-7.063759	 39.526810	 8.947134	-3.080007	-2.907503	-110.626600	 4.570120	-14.818900	-0.642249	-4.130319	 21.525730	 0.991547	-5.167930	 0.731704	 3.519349	-1.378229	 35.397820	-2.634230	-18.047800	 7.482712	 7.607378	-22.915400	-22.887610	-15.415980	 89.782110	 78.326520	-179.998000	 63.831400	-4.596684	-9.394590	-14.795670	-9.133364	 45.904820	-25.155850	 7.902313	-74.275960	 5.716227	 19.173190	-3.685159	 5.027444	 0.246877	-9.377972	-2.350882	 35.473990	 5.254307
-0.412909	 0.204978	 1.258941	-173.818100	 6.618085	 13.287180	 9.401200	-1.607769	 179.856900	-7.751845	-35.532890	-4.853968	 101.914500	 63.281920	-118.579100	-2.385833	 28.452760	 0.000004	 9.681651	-44.333960	 162.126200	 5.820343	-48.064110	 3.199703	-1.838861	 67.515220	 19.927960	 2.384659	 28.388700	-0.000001	 37.194840	-14.034760	 1.663226	 40.519140	 17.635370	 20.426570	-5.873449	-4.428957	-14.214860	-91.776180	 78.527420	-180.000000	-7.886941	 38.496400	 11.111230	-3.121364	-2.942327	-111.107800	 4.806301	-15.423490	-0.560809	-4.130319	 21.525730	 0.991547	-5.167930	 0.731704	 3.519349	-1.378229	 35.397820	-2.634230	-17.723550	 7.826112	 7.564421	-22.841220	-23.361190	-15.493100	 89.782100	 78.324520	-179.997700	 63.025220	-7.942910	-10.162100	-14.164190	-8.700270	 46.702570	-27.487180	 8.987051	-71.820750	 5.716227	 19.173190	-3.685159	 5.027444	 0.246877	-9.377972	-2.350882	 35.473990	 5.254307
-0.414471	 0.209086	 1.259954	-173.542100	 6.524787	 12.437720	 9.589581	-0.344234	-179.350900	-7.828825	-33.882720	-4.700689	 100.771800	 62.908500	-117.198100	-2.385833	 28.452760	 0.000004	 10.729750	-43.945670	 163.392900	 5.796005	-48.437940	 3.200092	-1.472798	 68.226330	 19.337200	 2.384659	 28.388700	-0.000001	 36.410130	-13.125760	 2.273546	 39.734480	 16.963280	 20.836600	-5.675614	-4.250505	-13.964930	-91.776200	 78.527350	-180.000000	-8.820612	 37.493120	 13.316520	-3.160230	-2.959857	-111.646400	 4.986802	-16.256230	-0.471840	-4.130319	 21.525730	 0.991547	-5.167930	 0.731704	 3.519349	-1.378229	 35.397820	-2.634230	-17.578040	 7.745134	 8.073523	-22.685640	-23.052210	-16.306910	 89.782140	 78.323330	-179.998200	 61.967270	-10.995860	-10.827170	-13.718030	-8.267204	 46.891420	-29.342300	 9.546361	-69.757790	 5.716227	 19.173190	-3.685159	 5.027444	 0.246877	-9.377972	-2.350882	 35.473990	 5.254307
